<svg version="1.2" xmlns="http://www.w3.org/2000/svg" xmlns:xlink="http://www.w3.org/1999/xlink" overflow="visible" preserveAspectRatio="none" viewBox="0 0 14 15" width="14" height="15"><g transform="translate(0, 0)"><g transform="translate(0, 0) rotate(0)"><path style="stroke: rgb(140, 140, 140); stroke-width: 0; stroke-linecap: butt; stroke-linejoin: miter; fill: rgb(151, 169, 203);" d="M3,6h2v2h-2zM3,10h2v2h-2zM1,3h12v-2h-12zM1,14h12v-10h-12zM13.5,0c0.276,0 0.5,0.224 0.5,0.5v14c0,0.276 -0.224,0.5 -0.5,0.5h-13c-0.275,0 -0.5,-0.224 -0.5,-0.5v-14c0,-0.276 0.225,-0.5 0.5,-0.5zM6,6h2v2h-1.99902zM9,10h2v2h-2zM9,6h2v2h-2zM6,10h2v2h-2z" vector-effect="non-scaling-stroke"/></g><defs><path id="path-16481479298671112" d="M3,6h2v2h-2zM3,10h2v2h-2zM1,3h12v-2h-12zM1,14h12v-10h-12zM13.5,0c0.276,0 0.5,0.224 0.5,0.5v14c0,0.276 -0.224,0.5 -0.5,0.5h-13c-0.275,0 -0.5,-0.224 -0.5,-0.5v-14c0,-0.276 0.225,-0.5 0.5,-0.5zM6,6h2v2h-1.99902zM9,10h2v2h-2zM9,6h2v2h-2zM6,10h2v2h-2z" vector-effect="non-scaling-stroke"/></defs></g></svg>